<svg version="1.1" viewBox="0 0 512 512" xmlns="http://www.w3.org/2000/svg">
 <defs>
  <style>.st0 {
        fill: #fff;
      }</style>
 </defs>
 <g transform="matrix(1.05 0 0 1.05 -13.19 -12.73)">
  <circle cx="256.4" cy="255.9" r="243.8" fill="#0a0a0a" stroke-linecap="round" stroke-width="5.079"/>
  <path class="st0" d="m385.6 214.1h-59.4c-0.2 6.2 1.6 12.9 1.9 19 0.3 5.5 1 15.2 0.7 20.3-0.5 9.4-14.1 10.4-16 1.9-1.5-6.7-0.3-20.1-1.2-28-0.5-4.3-1.3-8.8-2-13.1l-107.5 0.8c-3.2 27.5-4 55.8 0.4 83.3l52.7 1c8 2.5 4.5 15.1-0.5 15.1h-49.2c2.6 21.2 20.7 73.9 45.2 77 2.7 0.3 7.8 0.2 10.5-0.3 4.4-0.7 8.6-4.7 12.1-5.4 9-1.8 25.8 15.2 8.4 20.1-38.9 11.1-92.6-7.4-122.5-33-112.8-96.8-41.06-278.5 107.1-267.9 61.08 4.39 93.49 38.79 107.6 54.06 35.74 38.64 32.83 95.31 31.79 122.5-1.2 7.4-3.2 21.8-14.3 16.8s-0.6-22.1 0-29.2c1.4-18.6-1.1-37.1-5.8-55zm-78.9-16.5c-4.4-29.9-34.5-106.7-73.5-65.3-14.9 15.9-23.9 44.2-27.7 65.3h101.3zm-173.3 0h55.5c1.5-13.1 5.8-25.6 10.2-38l17.5-33.1c-36.2 10.6-67.1 37-83.2 71.1zm244.4 0c-14.8-34.1-46.8-60.4-82.3-71.1-1.5 0.8 0 1.7 0.4 2.5 2.6 4.4 5.9 8.5 8.3 13.1 9.4 17.3 15.6 36.2 19 55.5h54.5zm-191.8 16.5h-59.4c-8.6 27.9-8.2 56.8 0 84.7h59.4c-2.1-17.9-3.4-36-2.9-54zm2.9 100.4h-55.5c16 34.8 47.3 60.8 83.7 72.1 0.6-0.8-9-15.1-10.2-17.5-9-16.8-15.6-35.6-18-54.6z"/>
  <path class="st0" d="m400.8 405.7c-3.5 3.8-8.5 2.3-12.3-0.2-8.9-6-18.7-20.3-26.9-27.8-19.5 11.5-40.4 15-61 3.8-43.3-23.6-35.7-90.4 12-102.6 51.6-13.1 90.2 43.9 59.5 86.7 5 4.2 9 10.1 13.4 14.6 5.4 5.5 23.4 16.7 15.3 25.5zm-78.8-112.4c-44.9 5.2-44.6 72.6-2 78.4 62.2 8.4 60.9-85.2 2-78.4z"/>
 </g>
</svg>
